<?xml version="1.0" standalone="no"?><!DOCTYPE svg PUBLIC "-//W3C//DTD SVG 1.1//EN" "http://www.w3.org/Graphics/SVG/1.1/DTD/svg11.dtd"><svg t="1562381867326" class="icon" viewBox="0 0 1024 1024" version="1.1" xmlns="http://www.w3.org/2000/svg" p-id="4946" xmlns:xlink="http://www.w3.org/1999/xlink" width="200" height="200"><defs><style type="text/css"></style></defs><path d="M470.76 96h218.8v218.8h-218.8z" fill="#90FC95" p-id="4947"></path><path d="M689.6 322.8h-218.8a8 8 0 0 1-8-8V96a8 8 0 0 1 8-8h218.8a8 8 0 0 1 8 8v218.8a8 8 0 0 1-8 8z m-210.8-16h202.8V104h-202.8z" fill="#2FB1EA" p-id="4948"></path><path d="M333.84 216.68h196.28v196.28H333.84z" fill="#FFE76E" p-id="4949"></path><path d="M333.84 282.8h196.28v130.16H333.84z" fill="#FFC444" p-id="4950"></path><path d="M530.12 420.96H333.84a8 8 0 0 1-8-8V216.68a8 8 0 0 1 8-8h196.28a8 8 0 0 1 8 8v196.28a8 8 0 0 1-8 8z m-188.28-16h180.28V224.68H341.84z" fill="#2FB1EA" p-id="4951"></path><path d="M601.832 132.776l154.716 154.716-215.584 215.58L386.248 348.36z" fill="#A4ECFF" p-id="4952"></path><path d="M540.96 503.08l215.6-215.6-4.68-4.68h-300.08L386.24 348.36l154.72 154.72z" fill="#6DD0FC" p-id="4953"></path><path d="M540.96 511.08a8 8 0 0 1-5.64-2.36L380.6 354a8 8 0 0 1 0-11.32L596 127.12a8 8 0 0 1 11.32 0l154.72 154.72a8 8 0 0 1 0 11.32l-215.6 215.6a8 8 0 0 1-5.48 2.32zM397.56 348.36l143.4 143.4 204.28-204.28L601.84 144z" fill="#2FB1EA" p-id="4954"></path><path d="M164.56 176h196.28v196.28H164.56z" fill="#FF8888" p-id="4955"></path><path d="M164.56 282.8h196.28v89.48H164.56z" fill="#F97171" p-id="4956"></path><path d="M360.84 380.28H164.56a8 8 0 0 1-8-8V176a8 8 0 0 1 8-8h196.28a8 8 0 0 1 8 8v196.28a8 8 0 0 1-8 8z m-188.28-16h180.28V184H172.56z" fill="#2FB1EA" p-id="4957"></path><path d="M756.56 709.2H274.68a48 48 0 0 1-44.56-30.2L110.88 380.64A48 48 0 0 1 155.44 314.8h601.12z" fill="#CBECF9" p-id="4958"></path><path d="M710.12 666H274.68a48 48 0 0 1-44.56-30L110.88 380.64A48 48 0 0 1 155.44 314.8h554.68z" fill="#FFFFFF" p-id="4959"></path><path d="M756.56 717.2H274.68a55.72 55.72 0 0 1-52-35.2L103.44 383.6a56 56 0 0 1 52-76.8h601.12a8 8 0 0 1 8 8v394.4a8 8 0 0 1-8 8zM155.44 322.8a40 40 0 0 0-37.16 54.84L237.52 676a40 40 0 0 0 37.16 25.16h473.88V322.8z" fill="#2FB1EA" p-id="4960"></path><path d="M876.56 216m-40 0a40 40 0 1 0 80 0 40 40 0 1 0-80 0Z" fill="#90FC95" p-id="4961"></path><path d="M876.56 264a48 48 0 1 1 48-48 48 48 0 0 1-48 48z m0-80a32 32 0 1 0 32 32 32 32 0 0 0-32-32z" fill="#2FB1EA" p-id="4962"></path><path d="M756.56 322.8a8 8 0 0 1-8-8V271.72a8 8 0 0 1 4.28-7.08l82.08-43.08a8 8 0 0 1 7.44 14.16l-77.8 40.84v38.24a8 8 0 0 1-8 8z" fill="#2FB1EA" p-id="4963"></path><path d="M244.56 848m-80 0a80 80 0 1 0 160 0 80 80 0 1 0-160 0Z" fill="#6DD0FC" p-id="4964"></path><path d="M244.56 828.56m-60.56 0a60.56 60.56 0 1 0 121.12 0 60.56 60.56 0 1 0-121.12 0Z" fill="#A4ECFF" p-id="4965"></path><path d="M244.56 936a88 88 0 1 1 88-88 88 88 0 0 1-88 88z m0-160a72 72 0 1 0 72 72 72 72 0 0 0-72-72z" fill="#2FB1EA" p-id="4966"></path><path d="M847.16 856H324.56a8 8 0 0 1 0-16h522.6a61.4 61.4 0 1 0 0-122.8h-90.6a8 8 0 0 1 0-16h90.6a77.4 77.4 0 1 1 0 154.8z" fill="#2FB1EA" p-id="4967"></path><path d="M676.56 848m-80 0a80 80 0 1 0 160 0 80 80 0 1 0-160 0Z" fill="#6DD0FC" p-id="4968"></path><path d="M676.56 828.56m-60.56 0a60.56 60.56 0 1 0 121.12 0 60.56 60.56 0 1 0-121.12 0Z" fill="#A4ECFF" p-id="4969"></path><path d="M676.56 936a88 88 0 1 1 88-88 88 88 0 0 1-88 88z m0-160a72 72 0 1 0 72 72 72 72 0 0 0-72-72z" fill="#2FB1EA" p-id="4970"></path><path d="M124 184m-20 0a20 20 0 1 0 40 0 20 20 0 1 0-40 0Z" fill="#D4FFD4" p-id="4971"></path><path d="M148 684m-16 0a16 16 0 1 0 32 0 16 16 0 1 0-32 0Z" fill="#D4FFD4" p-id="4972"></path><path d="M792 888m-12 0a12 12 0 1 0 24 0 12 12 0 1 0-24 0Z" fill="#D4FFD4" p-id="4973"></path><path d="M352 96m-8 0a8 8 0 1 0 16 0 8 8 0 1 0-16 0Z" fill="#D4FFD4" p-id="4974"></path><path d="M180 740m-4 0a4 4 0 1 0 8 0 4 4 0 1 0-8 0Z" fill="#D4FFD4" p-id="4975"></path><path d="M44 336m-20 0a20 20 0 1 0 40 0 20 20 0 1 0-40 0Z" fill="#FFBDBD" p-id="4976"></path><path d="M496 40m-16 0a16 16 0 1 0 32 0 16 16 0 1 0-32 0Z" fill="#FFBDBD" p-id="4977"></path><path d="M684 988m-12 0a12 12 0 1 0 24 0 12 12 0 1 0-24 0Z" fill="#FFBDBD" p-id="4978"></path><path d="M896 640m-8 0a8 8 0 1 0 16 0 8 8 0 1 0-16 0Z" fill="#FFBDBD" p-id="4979"></path><path d="M276 944m-4 0a4 4 0 1 0 8 0 4 4 0 1 0-8 0Z" fill="#FFBDBD" p-id="4980"></path><path d="M548 916m-20 0a20 20 0 1 0 40 0 20 20 0 1 0-40 0Z" fill="#BBF1FF" p-id="4981"></path><path d="M812 492m-16 0a16 16 0 1 0 32 0 16 16 0 1 0-32 0Z" fill="#BBF1FF" p-id="4982"></path><path d="M748 136m-12 0a12 12 0 1 0 24 0 12 12 0 1 0-24 0Z" fill="#BBF1FF" p-id="4983"></path><path d="M872 560m-8 0a8 8 0 1 0 16 0 8 8 0 1 0-16 0Z" fill="#BBF1FF" p-id="4984"></path><path d="M172 916m-4 0a4 4 0 1 0 8 0 4 4 0 1 0-8 0Z" fill="#BBF1FF" p-id="4985"></path><path d="M980 568m-20 0a20 20 0 1 0 40 0 20 20 0 1 0-40 0Z" fill="#FFF4C5" p-id="4986"></path><path d="M896 364m-16 0a16 16 0 1 0 32 0 16 16 0 1 0-32 0Z" fill="#FFF4C5" p-id="4987"></path><path d="M404 764m-12 0a12 12 0 1 0 24 0 12 12 0 1 0-24 0Z" fill="#FFF4C5" p-id="4988"></path><path d="M104 568m-8 0a8 8 0 1 0 16 0 8 8 0 1 0-16 0Z" fill="#FFF4C5" p-id="4989"></path><path d="M208 112m-4 0a4 4 0 1 0 8 0 4 4 0 1 0-8 0Z" fill="#FFF4C5" p-id="4990"></path></svg>