<?xml version="1.0" standalone="no"?><!DOCTYPE svg PUBLIC "-//W3C//DTD SVG 1.1//EN" "http://www.w3.org/Graphics/SVG/1.1/DTD/svg11.dtd"><svg t="1562379556323" class="icon" viewBox="0 0 1024 1024" version="1.1" xmlns="http://www.w3.org/2000/svg" p-id="2175" xmlns:xlink="http://www.w3.org/1999/xlink" width="200" height="200"><defs><style type="text/css"></style></defs><path d="M770.56 460.8h250.88C998.4 220.16 803.84 25.6 563.2 2.56v250.88c104.96 20.48 186.88 102.4 207.36 207.36zM460.8 253.44V2.56C220.16 25.6 25.6 220.16 2.56 460.8h250.88c20.48-104.96 102.4-186.88 207.36-207.36z m102.4 517.12v250.88c243.2-23.04 435.2-217.6 460.8-460.8H773.12C750.08 668.16 668.16 750.08 563.2 770.56zM253.44 563.2H2.56c23.04 243.2 217.6 435.2 460.8 460.8V773.12C355.84 750.08 273.92 668.16 253.44 563.2z m0 0" p-id="2176"></path></svg>