<?xml version="1.0" standalone="no"?><!DOCTYPE svg PUBLIC "-//W3C//DTD SVG 1.1//EN" "http://www.w3.org/Graphics/SVG/1.1/DTD/svg11.dtd"><svg t="1616919955098" class="icon" viewBox="0 0 1024 1024" version="1.1" xmlns="http://www.w3.org/2000/svg" p-id="2050" xmlns:xlink="http://www.w3.org/1999/xlink" width="200" height="200"><defs><style type="text/css"></style></defs><path d="M934.4 981.312H89.6a46.08 46.08 0 0 1-46.912-46.848V89.6A46.08 46.08 0 0 1 89.6 42.688h844.8a46.08 46.08 0 0 1 46.912 46.848V934.4c0 24.96-20.352 46.848-46.912 46.848zM136.512 887.68h750.976V136.384H136.512v751.232z" fill="#2c2c2c" p-id="2051"></path><path d="M89.6 981.312a45.056 45.056 0 0 1-32.832-14.08c-18.816-18.688-18.816-48.384 0-65.536l560-560.704a45.312 45.312 0 0 1 56.32-7.808l242.56 137.408a47.36 47.36 0 0 1 17.152 64 47.552 47.552 0 0 1-64.128 17.28l-211.2-120.32-535.04 535.68a45.056 45.056 0 0 1-32.832 14.08zM330.496 494.08c-89.152 0-162.688-73.472-162.688-164.032a162.432 162.432 0 0 1 162.688-162.432c89.216 0 164.288 73.408 164.288 163.968 0 89.024-73.536 162.432-164.288 162.432z m0-232.768c-37.504 0-68.8 31.232-68.8 68.736 0 39.04 31.296 70.272 70.4 70.272 39.104 0 70.4-31.232 70.4-70.272a72.192 72.192 0 0 0-72-68.736z" fill="#2c2c2c" p-id="2052"></path></svg>
