<?xml version="1.0" standalone="no"?><!DOCTYPE svg PUBLIC "-//W3C//DTD SVG 1.1//EN" "http://www.w3.org/Graphics/SVG/1.1/DTD/svg11.dtd"><svg t="1621142188326" class="icon" viewBox="0 0 1024 1024" version="1.1" xmlns="http://www.w3.org/2000/svg" p-id="2480" xmlns:xlink="http://www.w3.org/1999/xlink" width="300" height="300"><defs><style type="text/css"></style></defs><path d="M856.34718025 87.13253925H168.94735803c-65.76254419 0-119.09752098 53.3349768-119.097521 119.097521v563.12414814c-1.55344592 6.2137837-1.55344592 12.16865975 0 18.1235358v30.55110322c0 65.76254419 53.3349768 119.09752098 119.097521 119.09752098h687.39982222c65.76254419 0 119.09752098-53.3349768 119.09752099-119.09752098V206.23006025c0-65.76254419-53.3349768-119.09752098-119.09752099-119.097521z m-687.39982222 72.49414322h687.39982222c25.63185778 0 46.60337778 20.97152 46.60337778 46.60337778v452.3116721c-26.92639605-36.50597925-59.5487605-76.37775803-93.46566321-107.96449185-20.19479703-18.90025876-45.3088395-26.66748839-72.75305087-22.78387359-43.23757827 6.2137837-90.61767902 42.20194765-144.72937877 109.77684544-12.94538272 16.05227457-24.59622717 32.10454914-34.17581036 45.82665482-47.63900839-65.76254419-141.36357925-187.19023408-220.84822913-243.11428742-23.56059653-16.57008987-49.96917728-20.45370469-76.89557334-11.65084444-29.25656494 9.5795832-57.73640691 34.43471803-86.7340642 75.85994272-16.82899753 23.81950419-33.91690272 53.3349768-51.26371556 88.02860247V206.23006025c0.25890765-25.89076543 20.97152-46.60337778 46.86228544-46.60337778z" fill="#707070" p-id="2481"></path><path d="M632 374.8a63 63 0 1 0 126 0 63 63 0 1 0-126 0z" fill="#707070" p-id="2482"></path></svg>