<?xml version="1.0" standalone="no"?><!DOCTYPE svg PUBLIC "-//W3C//DTD SVG 1.1//EN" "http://www.w3.org/Graphics/SVG/1.1/DTD/svg11.dtd"><svg t="1576222012569" class="icon" viewBox="0 0 1024 1024" version="1.1" xmlns="http://www.w3.org/2000/svg" p-id="2093" xmlns:xlink="http://www.w3.org/1999/xlink" width="200" height="200"><defs><style type="text/css">@font-face { font-family: uc-nexus-iconfont; src: url("chrome-extension://pogijhnlcfmcppgimcaccdkmbedjkmhi/res/font_9qmmi8b8jsxxbt9.woff") format("woff"), url("chrome-extension://pogijhnlcfmcppgimcaccdkmbedjkmhi/res/font_9qmmi8b8jsxxbt9.ttf") format("truetype"); }
</style></defs><path d="M371.232 119.456c-187.552 0-341.168 127.84-341.168 290.16 0 93.696 51.104 170.608 136.48 230.192l-34.112 102.656 119.248-59.84c42.688 8.48 76.912 17.152 119.504 17.152 10.704 0 21.328-0.528 31.84-1.36a254.752 254.752 0 0 1-10.512-71.488c0-148.96 128-269.92 290.064-269.92 11.04 0 21.984 0.8 32.864 2.016-29.52-137.44-176.464-239.568-344.208-239.568z m-110.832 230.336c-25.552 0-51.36-17.12-51.36-42.704 0-25.68 25.808-42.56 51.36-42.56s42.592 16.896 42.592 42.56c0 25.568-17.04 42.704-42.592 42.704z m238.768 0c-25.568 0-51.232-17.12-51.232-42.704 0-25.68 25.664-42.56 51.232-42.56 25.696 0 42.704 16.896 42.704 42.56 0 25.568-17.024 42.704-42.704 42.704z m494.8 273.056c0-136.32-136.48-247.488-289.776-247.488-162.32 0-290.176 111.184-290.176 247.488 0 136.608 127.84 247.568 290.176 247.568 33.968 0 68.208-8.56 102.352-17.12l93.6 51.232-25.664-85.264c68.48-51.344 119.488-119.472 119.488-196.416z m-383.872-42.624c-16.992 0-34.128-16.88-34.128-34.112 0-17.024 17.136-34.144 34.128-34.144 25.824 0 42.72 17.12 42.72 34.144 0 17.232-16.896 34.112-42.72 34.112z m187.68 0c-16.88 0-33.904-16.88-33.904-34.112 0-17.024 17.024-34.144 33.904-34.144 25.552 0 42.688 17.12 42.688 34.144 0 17.232-17.136 34.112-42.688 34.112z" p-id="2094"></path></svg>