<?xml version="1.0" standalone="no"?><!DOCTYPE svg PUBLIC "-//W3C//DTD SVG 1.1//EN" "http://www.w3.org/Graphics/SVG/1.1/DTD/svg11.dtd"><svg t="1621345672113" class="icon" viewBox="0 0 1024 1024" version="1.1" xmlns="http://www.w3.org/2000/svg" p-id="2050" xmlns:xlink="http://www.w3.org/1999/xlink" width="200" height="200"><defs><style type="text/css"></style></defs><path d="M667.68154392 174.22287399c55.18774932-13.41286797 107.36203501-1.12266277 148.66421523 25.23037447 77.16830956 59.64885778 97.81939907 170.82203839 21.83284114 269.08459354l-32.55722748 42.12940601c-11.66978618 7.82909676-38.76141769 42.92708794-44.93606291 43.69522609-55.86725599 57.7580569-75.92747151 98.26255638-67.98019947 160.54080815 8.77449781 68.39381176 70.37324412 104.76218362 183.90992554 102.81229507 6.2632779-0.76813812 13.23560626 4.66791399 20.29656487 10.04487969 0.79768195 6.23373406 1.56581886 12.46746814-3.89977706 19.49888292-5.37696447 6.97232837-11.61069852 7.79955293-17.81488879 8.5972361-139.26929961-1.09311894-214.84224529-48.33359625-226.83701227-141.66234425-9.54263593-74.65708965 15.92408789-122.19300394 76.40017143-193.18666709 6.20419024-0.79768195 33.3253644-35.89567193 44.96560673-43.69522487 10.84256164-14.00374316 22.51234777-21.86238495 33.3253644-35.86612812 53.44466755-76.40017143 42.27712511-163.52472799-13.85602408-206.89497326-21.09424682-16.27861374-41.33172406-26.32349339-66.20757267-23.1327668l21.03515918 16.24906989c21.09424682 16.24906992 24.28497341 41.18400617 7.17913391 55.98543127l-403.71552181 500.76678398c-5.43605211 6.97232837-22.51234777 21.83284113-34.92072827 23.42820381l-144.52808881 56.4581312c-24.10771049 9.39491682-38.14099867-1.44764479-35.09799-27.12117414l18.99663919-147.8665345c-1.59536269-12.43792431 9.24719771-26.47121129 14.68324983-33.5026273L570.36438857 155.0785157c16.27861374-21.06470299 41.95214308-18.02169552 62.18962032-8.00635967l35.12753503 27.15071796zM200.91963101 676.70319593s-4.63837136 13.23560626-10.04487967 20.26702226l-16.75131365 115.95926988 114.21618807-46.23598981c6.20419024-0.73859431 11.64024236-7.79955293 17.04675188-14.83096895l403.74506563-500.76678396-104.49629047-75.12978958L200.91963101 676.70319593z m376.59434765-465.60970512l104.49629045 75.10024574-27.09163152 35.09798999-104.49628923-75.12978954 27.0916303-35.06844619zM250.52360913 619.77236481l104.49629044 75.10024575-27.12117536 35.0979912-104.49628923-75.15933339 27.12117415-35.03890356z" p-id="2051"></path></svg>