<?xml version="1.0" standalone="no"?><!DOCTYPE svg PUBLIC "-//W3C//DTD SVG 1.1//EN" "http://www.w3.org/Graphics/SVG/1.1/DTD/svg11.dtd"><svg t="1632817465092" class="icon" viewBox="0 0 1024 1024" version="1.1" xmlns="http://www.w3.org/2000/svg" p-id="3113" xmlns:xlink="http://www.w3.org/1999/xlink" width="200" height="200"><defs><style type="text/css"></style></defs><path d="M480 842.666667v-95.872h64V842.666667h149.333333v-661.333334h-362.666666v661.333334h149.333333z m-213.333333-490.666667v-234.666667h490.666666v234.666667h256v554.666667H10.666667v-554.666667h256z m0 64h-192v426.666667h192v-426.666667z m490.666666 0v426.666667h192v-426.666667h-192zM405.333333 234.666667h64v64h-64v-64z m149.333334 0h64v64h-64v-64z m-149.333334 149.333333h64v64h-64v-64z m149.333334 0h64v64h-64v-64z m-149.333334 149.333333h64v64h-64v-64z m149.333334 0h64v64h-64v-64z" p-id="3114"></path></svg>