<?xml version="1.0" standalone="no"?><!DOCTYPE svg PUBLIC "-//W3C//DTD SVG 1.1//EN" "http://www.w3.org/Graphics/SVG/1.1/DTD/svg11.dtd"><svg t="1641198024041" class="icon" viewBox="0 0 1024 1024" version="1.1" xmlns="http://www.w3.org/2000/svg" p-id="3932" xmlns:xlink="http://www.w3.org/1999/xlink" width="200" height="200"><defs><style type="text/css"></style></defs><path d="M859.733333 988.16H170.666667a128 128 0 0 1-125.866667-126.72v-704A128 128 0 0 1 170.666667 30.08h689.066666a126.72 126.72 0 0 1 126.72 126.506667v704a128 128 0 0 1-126.72 127.573333zM170.666667 62.08a94.933333 94.933333 0 0 0-93.866667 94.506667v704A95.146667 95.146667 0 0 0 170.666667 956.16h689.066666a94.933333 94.933333 0 0 0 94.72-94.72v-704a94.72 94.72 0 0 0-94.72-95.36z" p-id="3933"></path><path d="M813.013333 790.826667a14.08 14.08 0 0 1-4.053333 9.813333 13.653333 13.653333 0 0 1-9.6 4.053333H635.733333a13.653333 13.653333 0 0 1-9.6-4.053333 14.08 14.08 0 0 1-4.053333-9.813333V652.8a13.653333 13.653333 0 0 1 13.653333-12.8h163.626667a13.653333 13.653333 0 0 1 13.653333 13.653333z m-403.84-136.32v138.026666a12.8 12.8 0 0 1-4.053333 9.6 13.653333 13.653333 0 0 1-9.6 4.053334h-163.626667a13.653333 13.653333 0 0 1-9.6-4.053334 13.866667 13.866667 0 0 1-4.053333-9.6v-138.026666a13.866667 13.866667 0 0 1 13.653333-13.866667h163.626667a13.866667 13.866667 0 0 1 13.653333 13.866667zM416.426667 362.666667v-137.173334a13.866667 13.866667 0 0 1 13.866666-13.866666h163.413334a13.866667 13.866667 0 0 1 13.866666 13.866666V362.666667a13.866667 13.866667 0 0 1-13.866666 13.653333h-163.413334a13.866667 13.866667 0 0 1-13.866666-13.653333z m277.333333 132.053333h-162.133333v-78.933333h62.08A52.48 52.48 0 0 0 645.973333 362.666667v-137.173334a52.266667 52.266667 0 0 0-52.266666-52.266666h-163.413334a52.266667 52.266667 0 0 0-52.266666 52.266666V362.666667a52.48 52.48 0 0 0 52.48 52.266666h65.706666v80H320a37.12 37.12 0 0 0-37.76 38.4v69.333334h-50.133333a52.48 52.48 0 0 0-52.266667 52.48v137.813333a52.48 52.48 0 0 0 52.266667 52.48h163.413333A52.693333 52.693333 0 0 0 448 792.533333v-138.026666a52.266667 52.266667 0 0 0-52.266667-52.266667h-77.226666v-58.88a8.96 8.96 0 0 1 8.96-8.96h362.666666a8.96 8.96 0 0 1 8.96 8.96v57.173333h-64a52.48 52.48 0 0 0-52.053333 52.48v137.813334a52.266667 52.266667 0 0 0 52.053333 52.48h163.626667a52.266667 52.266667 0 0 0 52.053333-52.48V652.8a52.266667 52.266667 0 0 0-52.053333-52.266667h-61.44V533.333333a40.96 40.96 0 0 0-43.093333-37.76z" p-id="3934"></path></svg>