<?xml version="1.0" standalone="no"?><!DOCTYPE svg PUBLIC "-//W3C//DTD SVG 1.1//EN" "http://www.w3.org/Graphics/SVG/1.1/DTD/svg11.dtd"><svg t="1632817592360" class="icon" viewBox="0 0 1024 1024" version="1.1" xmlns="http://www.w3.org/2000/svg" p-id="4894" xmlns:xlink="http://www.w3.org/1999/xlink" width="200" height="200"><defs><style type="text/css"></style></defs><path d="M251.094407 499.70932a50.101855 50.101855 0 0 1-36.570697-14.628279L14.628279 285.551318a53.539501 53.539501 0 0 1 0-73.872809L214.01172 14.781876a53.539501 53.539501 0 0 1 73.872808 0l199.383441 199.383441a53.539501 53.539501 0 0 1 0 73.872808L287.884528 487.421566a73.141394 73.141394 0 0 1-36.570697 12.287754zM78.773282 248.614913l172.321125 172.321125 172.321125-172.321125-172.321125-172.321125c0 2.486807-172.321125 172.321125-172.321125 172.321125z m172.321125 775.29878a50.101855 50.101855 0 0 1-36.570697-14.628279L14.628279 809.828832a53.539501 53.539501 0 0 1 0-73.872808l199.383441-199.383441a53.539501 53.539501 0 0 1 73.872808 0l199.383441 199.383441a53.539501 53.539501 0 0 1 0 73.872808l-199.383441 199.383441a59.098247 59.098247 0 0 1-36.790121 14.774562z m-172.321125-251.094407l172.321125 172.101701 172.321125-172.321125-172.321125-172.321125zM987.408823 211.678509H561.213919a37.887242 37.887242 0 0 1-36.570698-36.570697 36.570697 36.570697 0 0 1 36.570698-36.570697H987.408823a36.936404 36.936404 0 0 1 0 73.872808z m0 349.542724H561.213919a36.936404 36.936404 0 0 1 0-73.872809H987.408823a36.936404 36.936404 0 0 1 0 73.872809z m0 349.542723H561.213919a36.936404 36.936404 0 0 1 0-73.872808H987.408823a36.936404 36.936404 0 0 1 0 73.872808z" p-id="4895"></path></svg>