<?xml version="1.0" standalone="no"?><!DOCTYPE svg PUBLIC "-//W3C//DTD SVG 1.1//EN" "http://www.w3.org/Graphics/SVG/1.1/DTD/svg11.dtd"><svg t="1621142146845" class="icon" viewBox="0 0 1280 1024" version="1.1" xmlns="http://www.w3.org/2000/svg" p-id="1655" xmlns:xlink="http://www.w3.org/1999/xlink" width="375" height="300"><defs><style type="text/css"></style></defs><path d="M1137.728 21.312H142.272A143.168 143.168 0 0 0 0 164.608v716.224C0 959.552 64 1024 142.272 1024h995.456A143.168 143.168 0 0 0 1280 880.704V164.608c0-78.784-64-143.296-142.272-143.296zM142.272 92.992h995.456c39.296 0 71.168 32.064 71.168 71.616v593.984L960 507.84l-231.104 232.768-407.68-410.56-250.112 252.032V164.608c0-39.552 31.872-71.68 71.168-71.68zM71.04 880.64v-197.376L321.28 431.232l517.376 521.152H142.272a71.424 71.424 0 0 1-71.168-71.68z m1066.624 71.68h-198.592l-160-161.152L960 609.152l248.896 250.688v20.992c0 39.424-31.872 71.552-71.168 71.552z m-284.352-501.376a142.72 142.72 0 0 0 142.272-143.232 142.72 142.72 0 0 0-142.272-143.296 142.72 142.72 0 0 0-142.272 143.296 142.72 142.72 0 0 0 142.272 143.232z m0-214.912c39.232 0 71.104 32.128 71.104 71.68 0 39.488-31.872 71.616-71.104 71.616a71.424 71.424 0 0 1-71.104-71.68c0-39.488 31.872-71.616 71.104-71.616z" p-id="1656"></path></svg>