<?xml version="1.0" standalone="no"?><!DOCTYPE svg PUBLIC "-//W3C//DTD SVG 1.1//EN" "http://www.w3.org/Graphics/SVG/1.1/DTD/svg11.dtd"><svg t="1621141930534" class="icon" viewBox="0 0 1144 1024" version="1.1" xmlns="http://www.w3.org/2000/svg" p-id="961" xmlns:xlink="http://www.w3.org/1999/xlink" width="223.4375" height="200"><defs><style type="text/css"></style></defs><path d="M331.294118 903.529412a60.235294 60.235294 0 1 1 0 120.470588 60.235294 60.235294 0 0 1 0-120.470588z m240.941176 0a60.235294 60.235294 0 1 1 0 120.470588 60.235294 60.235294 0 0 1 0-120.470588z m240.941177 0a60.235294 60.235294 0 1 1 0 120.470588 60.235294 60.235294 0 0 1 0-120.470588z m150.588235-903.529412a180.705882 180.705882 0 0 1 180.705882 180.705882v481.882353a180.705882 180.705882 0 0 1-180.705882 180.705883H180.705882a180.705882 180.705882 0 0 1-180.705882-180.705883V180.705882a180.705882 180.705882 0 0 1 180.705882-180.705882h783.058824z m0 90.352941H180.705882a90.352941 90.352941 0 0 0-90.202353 85.052235L90.352941 180.705882v481.882353a90.352941 90.352941 0 0 0 85.052235 90.202353L180.705882 752.941176h783.058824a90.352941 90.352941 0 0 0 90.202353-85.052235L1054.117647 662.588235V180.705882a90.352941 90.352941 0 0 0-85.052235-90.202353L963.764706 90.352941zM573.259294 521.938824l5.210353 6.234352 7.137882 8.884706a145.167059 145.167059 0 0 0 215.762824 19.817412l5.903059-5.812706 34.032941-35.599059A30.117647 30.117647 0 0 1 887.265882 554.164706l-2.409411 2.891294-34.032942 35.599059a205.402353 205.402353 0 0 1-26.413176 23.280941c-89.148235 65.897412-213.985882 48.971294-281.810824-36.020706l-4.638117-6.023529-6.354824-7.890824a174.501647 174.501647 0 0 0-242.176-28.732235 30.117647 30.117647 0 1 1-36.743529-47.736471 234.736941 234.736941 0 0 1 320.572235 32.406589zM813.176471 150.588235a120.470588 120.470588 0 1 1 0 240.941177 120.470588 120.470588 0 0 1 0-240.941177z m0 60.235294a60.235294 60.235294 0 1 0 0 120.470589 60.235294 60.235294 0 0 0 0-120.470589z" p-id="962"></path></svg>