<?xml version="1.0" standalone="no"?><!DOCTYPE svg PUBLIC "-//W3C//DTD SVG 1.1//EN" "http://www.w3.org/Graphics/SVG/1.1/DTD/svg11.dtd"><svg t="1632818890507" class="icon" viewBox="0 0 1024 1024" version="1.1" xmlns="http://www.w3.org/2000/svg" p-id="2987" xmlns:xlink="http://www.w3.org/1999/xlink" width="200" height="200"><defs><style type="text/css"></style></defs><path d="M828.8 598.4c-6.4-6.4-12.8-9.6-22.4-9.6-9.6 0-16 3.2-22.4 9.6L694.4 688c-12.8 12.8-12.8 32 0 44.8 12.8 12.8 32 12.8 44.8 0l35.2-35.2V896c0 16 12.8 32 32 32s32-12.8 32-32V697.6l38.4 38.4c12.8 12.8 32 12.8 44.8 0 12.8-12.8 12.8-32 0-44.8l-92.8-92.8z m-419.2-240c16-35.2 6.4-76.8-19.2-105.6-28.8-28.8-73.6-35.2-108.8-22.4-35.2 16-57.6 54.4-57.6 92.8 0 51.2 41.6 92.8 92.8 92.8 38.4 0 76.8-22.4 92.8-57.6zM288 323.2c0-9.6 3.2-16 9.6-22.4 3.2-9.6 12.8-12.8 22.4-12.8 16 0 32 12.8 32 28.8s-12.8 32-28.8 35.2c-19.2 0-35.2-12.8-35.2-28.8z" fill="#333333" p-id="2988"></path><path d="M896 96H128c-35.2 0-64 28.8-64 64v640c0 35.2 28.8 64 64 64h544v-64H160c-19.2 0-32-16-32-32V192c0-16 12.8-32 32-32h704c19.2 0 32 16 32 32v416h64V160c0-35.2-28.8-64-64-64z" fill="#333333" p-id="2989"></path><path d="M182.4 713.6c12.8 12.8 32 12.8 44.8 0l134.4-134.4 112 112c3.2 3.2 3.2 3.2 6.4 3.2 12.8 6.4 25.6 6.4 38.4-3.2l316.8-316.8c12.8-12.8 12.8-32 0-44.8-12.8-12.8-32-12.8-44.8 0L496 624 384 508.8l-3.2-3.2c-12.8-9.6-28.8-9.6-41.6 3.2l-160 160c-9.6 12.8-9.6 32 3.2 44.8z" fill="#333333" p-id="2990"></path></svg>