<?xml version="1.0" standalone="no"?><!DOCTYPE svg PUBLIC "-//W3C//DTD SVG 1.1//EN" "http://www.w3.org/Graphics/SVG/1.1/DTD/svg11.dtd"><svg t="1605449862303" class="icon" viewBox="0 0 1024 1024" version="1.1" xmlns="http://www.w3.org/2000/svg" p-id="1143" xmlns:xlink="http://www.w3.org/1999/xlink" width="200" height="200"><defs><style type="text/css"></style></defs><path d="M332.8 249.6c38.4 0 83.2 19.2 108.8 44.8L467.2 320 512 364.8 556.8 320l25.6-25.6c32-32 70.4-44.8 108.8-44.8 19.2 0 38.4 6.4 57.6 12.8 44.8 25.6 70.4 57.6 76.8 108.8 6.4 44.8-6.4 89.6-38.4 121.6L512 774.4 236.8 492.8C204.8 460.8 185.6 416 192 371.2c6.4-44.8 38.4-83.2 76.8-108.8C288 256 313.6 249.6 332.8 249.6L332.8 249.6M332.8 185.6C300.8 185.6 268.8 192 243.2 204.8 108.8 275.2 89.6 441.6 185.6 537.6l281.6 281.6C480 832 499.2 838.4 512 838.4s32-6.4 38.4-19.2l281.6-281.6c96-96 76.8-262.4-57.6-332.8-25.6-12.8-57.6-19.2-89.6-19.2-57.6 0-115.2 25.6-153.6 64L512 275.2 486.4 249.6C448 211.2 390.4 185.6 332.8 185.6L332.8 185.6z" p-id="1144"></path></svg>