<?xml version="1.0" standalone="no"?><!DOCTYPE svg PUBLIC "-//W3C//DTD SVG 1.1//EN"
  "http://www.w3.org/Graphics/SVG/1.1/DTD/svg11.dtd">
<svg t="1576222002864" class="icon" viewBox="0 0 1024 1024" version="1.1" xmlns="http://www.w3.org/2000/svg" p-id="1884"
     width="200" height="200">
  <defs>
    <style type="text/css">@font-face { font-family: uc-nexus-iconfont; src:
      url("chrome-extension://pogijhnlcfmcppgimcaccdkmbedjkmhi/res/font_9qmmi8b8jsxxbt9.woff") format("woff"),
      url("chrome-extension://pogijhnlcfmcppgimcaccdkmbedjkmhi/res/font_9qmmi8b8jsxxbt9.ttf") format("truetype"); }
    </style>
  </defs>
  <path
    d="M933.4461 643.862213c-18.783809-108.945271-97.673553-180.322925-97.673553-180.322925 11.268648-98.920964-30.055526-116.461455-30.055526-116.461455C797.015847 41.027415 533.382495 46.38647 527.847431 46.531779c-5.542226-0.145309-269.211395-5.504364-277.872658 300.5481 0 0-41.325198 17.539468-30.054503 116.461455 0 0-78.894861 71.377654-97.676623 180.322925 0 0-10.033517 184.082552 90.159416 22.543436 0 0 22.544459 61.344137 63.86761 116.455315 0 0-73.897034 25.061792-67.621097 90.164532 0 0-2.517333 72.618924 157.784606 67.62519 0 0 112.701828-8.756431 146.515958-56.350402l14.766308 0 0.26299 0 14.765285 0c33.809013 47.596018 146.513912 56.350402 146.513912 56.350402 160.26203 4.993734 157.781536-67.62519 157.781536-67.62519 6.238075-65.10274-67.620074-90.164532-67.620074-90.164532 41.324174-55.109132 63.86147-116.455315 63.86147-116.455315C943.437661 827.944765 933.4461 643.862213 933.4461 643.862213L933.4461 643.862213z"
    p-id="1885"></path>
</svg>
