<?xml version="1.0" standalone="no"?><!DOCTYPE svg PUBLIC "-//W3C//DTD SVG 1.1//EN" "http://www.w3.org/Graphics/SVG/1.1/DTD/svg11.dtd"><svg t="1632817453897" class="icon" viewBox="0 0 1024 1024" version="1.1" xmlns="http://www.w3.org/2000/svg" p-id="2980" xmlns:xlink="http://www.w3.org/1999/xlink" width="200" height="200"><defs><style type="text/css"></style></defs><path d="M809.717931 757.015711l-273.159474 256.625913a36.425058 36.425058 0 0 1-49.942169 0l-274.4685-258.674823h0.199199A435.620923 435.620923 0 0 1 74.956223 440.573023C72.964228 198.773247 269.346511 0.455882 511.288573 0.000569c241.828234-0.455313 438.011317 195.357828 438.011317 436.929948a435.677837 435.677837 0 0 1-139.581959 320.085194zM512.142285 72.822227c-201.219986 0-364.335947 163.03059-364.335947 364.10829a362.856179 362.856179 0 0 0 122.194686 272.049649l241.543663 228.083466 230.872259-218.009661c13.659397-11.155174 26.493538-23.249431 38.388596-36.254315a362.713894 362.713894 0 0 0 95.644233-245.869139c0-201.077701-163.115961-364.10829-364.30749-364.10829z m0 546.176664a182.125288 182.125288 0 0 1-182.182202-182.068374 182.125288 182.125288 0 0 1 182.182202-182.039916 182.125288 182.125288 0 0 1 182.153745 182.039916 182.125288 182.125288 0 0 1-182.153745 182.068374z m0-291.286632a109.246716 109.246716 0 1 0 0 218.464974 109.275173 109.275173 0 1 0 0-218.464974z" p-id="2981"></path></svg>