<?xml version="1.0" standalone="no"?><!DOCTYPE svg PUBLIC "-//W3C//DTD SVG 1.1//EN"
        "http://www.w3.org/Graphics/SVG/1.1/DTD/svg11.dtd">
<svg t="1632817582267" class="icon" viewBox="0 0 1024 1024" version="1.1" xmlns="http://www.w3.org/2000/svg" p-id="4757"
     width="200" height="200">
    <defs>
        <style type="text/css"></style>
    </defs>
    <path d="M983.917714 541.257143H578.925714a38.912 38.912 0 0 0-38.765714 38.765714v405.211429a38.912 38.912 0 0 0 38.765714 38.765714h405.211429a38.912 38.912 0 0 0 38.765714-38.765714V580.022857a38.912 38.912 0 0 0-38.985143-38.765714z m-111.835428 369.152a20.260571 20.260571 0 0 1 0 40.448h-180.662857a20.260571 20.260571 0 0 1 0-40.448h70.729142V658.285714h-70.144a20.260571 20.260571 0 0 1 0-40.448h180.662858a20.260571 20.260571 0 1 1 0 40.448h-69.924572v252.123429h69.412572zM446.098286 0H40.886857a38.912 38.912 0 0 0-38.765714 38.765714v405.211429a38.912 38.912 0 0 0 38.765714 38.765714h405.211429a38.912 38.912 0 0 0 38.765714-38.765714V38.765714a38.838857 38.838857 0 0 0-38.765714-38.765714zM334.262857 369.152a20.260571 20.260571 0 0 1 0 40.448h-180.662857a20.260571 20.260571 0 0 1 0-40.448h70.729143V117.028571h-70.144a20.260571 20.260571 0 0 1 0-40.448h180.662857a20.260571 20.260571 0 0 1 0 40.448h-69.924571v252.123429z m0 0L989.037714 25.819429a9.142857 9.142857 0 0 1 8.996572 8.996571v415.378286a9.142857 9.142857 0 0 1-8.996572 8.996571H573.659429a9.142857 9.142857 0 0 1-8.996572-8.996571V34.816a9.142857 9.142857 0 0 1 8.996572-8.996571h415.378285m0-24.722286H573.659429a33.792 33.792 0 0 0-33.645715 33.645714v415.378286a33.792 33.792 0 0 0 33.645715 33.645714h415.378285a33.792 33.792 0 0 0 33.645715-33.645714V34.816a33.792 33.792 0 0 0-33.645715-33.718857zM450.194286 565.979429a9.142857 9.142857 0 0 1 8.996571 8.996571v415.378286a9.142857 9.142857 0 0 1-8.996571 8.996571H34.742857a9.142857 9.142857 0 0 1-8.996571-8.996571V574.902857a9.142857 9.142857 0 0 1 8.996571-8.996571h415.451429m0-24.722286H34.742857a33.792 33.792 0 0 0-33.645714 33.645714v415.524572a33.792 33.792 0 0 0 33.645714 33.645714h415.451429a33.792 33.792 0 0 0 33.645714-33.645714V574.902857a33.792 33.792 0 0 0-33.645714-33.645714z"
          p-id="4758"></path>
</svg>
