<?xml version="1.0" standalone="no"?><!DOCTYPE svg PUBLIC "-//W3C//DTD SVG 1.1//EN"
        "http://www.w3.org/Graphics/SVG/1.1/DTD/svg11.dtd">
<svg t="1632817741280" class="icon" viewBox="0 0 1024 1024" version="1.1" xmlns="http://www.w3.org/2000/svg" p-id="1424"
     width="200" height="200">
    <defs>
        <style type="text/css"></style>
    </defs>
    <path d="M431.967235 720.444661h383.438323v95.859581h-383.438323zM431.967235 464.819113h383.438323v95.85958h-383.438323zM431.967235 209.193564h383.438323v95.859581h-383.438323zM208.294881 720.444661h134.003705v95.859581H208.294881zM208.294881 464.819113h134.003705v95.85958H208.294881zM208.294881 209.193564h134.003705v95.859581H208.294881z"
          p-id="1425"></path>
    <path d="M895.288542 97.357387c17.574256 0 31.953194 14.378937 31.953194 31.953193v766.876646c0 17.574256-14.378937 31.953194-31.953194 31.953193h-766.876645c-17.574256 0-31.953194-14.378937-31.953194-31.953193v-766.876646c0-17.574256 14.378937-31.953194 31.953194-31.953193h766.876645m0-95.859581h-766.876645C57.81531 1.497806 0.599122 58.713993 0.599122 129.31058v766.876646c0 70.596587 57.216187 127.812774 127.812775 127.812774h766.876645c70.596587 0 127.812774-57.216187 127.812774-127.812774v-766.876646c0-70.596587-57.216187-127.812774-127.812774-127.812774z"
          p-id="1426"></path>
</svg>
