<?xml version="1.0" standalone="no"?><!DOCTYPE svg PUBLIC "-//W3C//DTD SVG 1.1//EN" "http://www.w3.org/Graphics/SVG/1.1/DTD/svg11.dtd"><svg t="1639813840068" class="icon" viewBox="0 0 1024 1024" version="1.1" xmlns="http://www.w3.org/2000/svg" p-id="2942" xmlns:xlink="http://www.w3.org/1999/xlink" width="200" height="200"><defs><style type="text/css"></style></defs><path d="M896 224H128c-35.2 0-64 28.8-64 64v448c0 35.2 28.8 64 64 64h768c35.2 0 64-28.8 64-64V288c0-35.2-28.8-64-64-64z m0 480c0 19.2-12.8 32-32 32H160c-19.2 0-32-12.8-32-32V320c0-19.2 12.8-32 32-32h704c19.2 0 32 12.8 32 32v384z" fill="#333333" p-id="2943"></path><path d="M291.2 412.8c-12.8 6.4-22.4 12.8-35.2 16v41.6c22.4-6.4 41.6-16 54.4-28.8V640h38.4V393.6H320c-6.4 3.2-19.2 12.8-28.8 19.2zM489.6 560c22.4-16 41.6-28.8 48-38.4 16-16 22.4-38.4 22.4-57.6 0-22.4-6.4-38.4-22.4-54.4-16-12.8-35.2-19.2-57.6-19.2-25.6 0-48 9.6-60.8 25.6-16 16-22.4 38.4-22.4 67.2h38.4c0-19.2 3.2-35.2 12.8-44.8 6.4-9.6 19.2-16 32-16s25.6 3.2 32 9.6c6.4 6.4 9.6 16 9.6 28.8s-6.4 25.6-16 38.4c-6.4 6.4-16 16-32 28.8-28.8 19.2-44.8 35.2-54.4 44.8-16 19.2-22.4 41.6-22.4 64h166.4v-35.2H444.8c6.4-12.8 22.4-25.6 44.8-41.6z m233.6-54.4c25.6-9.6 38.4-25.6 38.4-54.4 0-22.4-6.4-38.4-22.4-51.2-16-12.8-35.2-19.2-57.6-19.2S640 387.2 624 400c-16 12.8-25.6 32-25.6 57.6h38.4c0-16 6.4-25.6 12.8-32 6.4-6.4 19.2-9.6 32-9.6s25.6 3.2 32 9.6c6.4 6.4 9.6 16 9.6 28.8s-3.2 22.4-9.6 28.8c-6.4 6.4-19.2 9.6-32 9.6h-16v28.8h16c16 0 25.6 3.2 35.2 9.6 9.6 6.4 12.8 16 12.8 32 0 12.8-3.2 22.4-12.8 28.8-9.6 9.6-19.2 12.8-35.2 12.8-12.8 0-25.6-3.2-32-12.8-9.6-9.6-12.8-22.4-16-38.4h-38.4c3.2 28.8 12.8 48 28.8 64 16 12.8 35.2 19.2 60.8 19.2 25.6 0 48-6.4 64-22.4 16-16 22.4-32 22.4-54.4 0-16-3.2-25.6-12.8-35.2-9.6-6.4-22.4-16-35.2-19.2z" fill="#333333" p-id="2944"></path></svg>