<?xml version="1.0" standalone="no"?><!DOCTYPE svg PUBLIC "-//W3C//DTD SVG 1.1//EN" "http://www.w3.org/Graphics/SVG/1.1/DTD/svg11.dtd"><svg t="1641306346350" class="icon" viewBox="0 0 1024 1024" version="1.1" xmlns="http://www.w3.org/2000/svg" p-id="2777" xmlns:xlink="http://www.w3.org/1999/xlink" width="200" height="200"><defs><style type="text/css"></style></defs><path d="M763.503937 827.262284A464.890804 464.890804 0 0 1 466.818312 933.636624C209.014135 933.636624 0 724.62249 0 466.818312 0 209.014135 209.014135 0 466.818312 0 724.62249 0 933.636624 209.014135 933.636624 466.818312c0 112.608624-39.875319 215.910999-106.283989 296.535039l183.474656 183.775828a44.965145 44.965145 0 0 1-0.180704 63.758346c-17.739096 17.558392-46.380658 17.46804-63.999285-0.180703l-183.143365-183.444538zM466.818312 843.284693C674.748223 843.284693 843.284693 674.748223 843.284693 466.818312S674.748223 90.351931 466.818312 90.351931 90.351931 258.888401 90.351931 466.818312 258.888401 843.284693 466.818312 843.284693zM511.994278 391.525036v255.997139a45.175966 45.175966 0 0 1-90.351932 0V391.525036h-75.293276a45.175966 45.175966 0 0 1 0-90.351931h240.938484a45.175966 45.175966 0 0 1 0 90.351931H511.994278z" fill="#2A2A2A" p-id="2778"></path></svg>