<?xml version="1.0" standalone="no"?><!DOCTYPE svg PUBLIC "-//W3C//DTD SVG 1.1//EN" "http://www.w3.org/Graphics/SVG/1.1/DTD/svg11.dtd"><svg t="1632817708209" class="icon" viewBox="0 0 1024 1024" version="1.1" xmlns="http://www.w3.org/2000/svg" p-id="1196" xmlns:xlink="http://www.w3.org/1999/xlink" width="200" height="200"><defs><style type="text/css"></style></defs><path d="M158.8224 439.808c0 19.456 16.896 35.4304 38.0928 36.1472h630.1696c21.2992-0.6144 38.0928-16.5888 38.0928-36.1472 0-19.456-16.896-35.4304-38.0928-36.1472H196.9152c-21.2992 0.6144-38.0928 16.5888-38.0928 36.1472z" p-id="1197"></path><path d="M1016.832 130.048l-0.3072-0.4096-1.1264-0.8192-0.512-0.6144-0.4096-0.4096c-0.7168-0.7168-1.4336-1.536-2.1504-2.1504-0.8192-0.7168-1.536-1.3312-2.2528-1.9456l-0.512-0.4096-0.6144-0.512-0.9216-0.6144-0.4096-0.3072-1.2288-0.8192c-5.3248-3.2768-11.4688-5.2224-17.8176-5.8368h-82.7392c-21.7088 0-39.424 16.1792-39.424 36.1472 0 19.968 17.6128 36.1472 39.424 36.1472h39.424v722.0224H78.7456V187.0848h39.424c21.7088 0 39.424-16.1792 39.424-36.1472s-17.6128-36.1472-39.424-36.1472H39.424C17.6128 114.8928 0 131.072 0 150.9376V945.152c0 19.968 17.6128 36.1472 39.424 36.1472h945.2544c21.7088 0 39.424-16.1792 39.424-36.1472V150.9376v-3.3792-0.2048c-0.6144-5.8368-2.7648-11.4688-6.3488-16.2816l-0.9216-1.024z" p-id="1198"></path><path d="M275.6608 259.2768c21.7088 0 39.424-16.1792 39.424-36.1472v-144.384c0-19.968-17.6128-36.1472-39.424-36.1472s-39.424 16.1792-39.424 36.1472v144.384c0.1024 19.968 17.7152 36.1472 39.424 36.1472zM748.3392 259.2768c21.7088 0 39.424-16.1792 39.424-36.1472v-144.384c0-19.968-17.6128-36.1472-39.424-36.1472-21.7088 0-39.424 16.1792-39.424 36.1472v144.384c0 19.968 17.6128 36.1472 39.424 36.1472zM827.0848 692.5312H196.9152c-21.7088 0-39.424 16.1792-39.424 36.1472s17.6128 36.1472 39.424 36.1472h630.1696c14.0288 0 27.0336-6.8608 34.0992-18.0224 7.0656-11.1616 7.0656-24.8832 0-36.1472-7.0656-11.264-20.0704-18.1248-34.0992-18.1248zM196.9152 620.3392h630.1696c14.0288 0 27.0336-6.8608 34.0992-18.0224 7.0656-11.1616 7.0656-24.8832 0-36.1472-7.0656-11.1616-20.0704-18.0224-34.0992-18.0224H196.9152c-21.7088 0-39.424 16.1792-39.424 36.1472 0 19.8656 17.7152 36.0448 39.424 36.0448zM590.7456 187.0848c21.7088 0 39.424-16.1792 39.424-36.1472s-17.6128-36.1472-39.424-36.1472H433.2544c-21.7088 0-39.424 16.1792-39.424 36.1472s17.6128 36.1472 39.424 36.1472h157.4912z" p-id="1199"></path></svg>