<?xml version="1.0" standalone="no"?><!DOCTYPE svg PUBLIC "-//W3C//DTD SVG 1.1//EN" "http://www.w3.org/Graphics/SVG/1.1/DTD/svg11.dtd"><svg t="1641198013864" class="icon" viewBox="0 0 1024 1024" version="1.1" xmlns="http://www.w3.org/2000/svg" p-id="3767" xmlns:xlink="http://www.w3.org/1999/xlink" width="200" height="200"><defs><style type="text/css"></style></defs><path d="M505.9 498.2c-112 0-203.1-91.1-203.1-203.1S393.9 92 505.9 92 709 183.1 709 295.1s-91.1 203.1-203.1 203.1z m0-365.9c-89.8 0-162.9 73.1-162.9 162.9S416.1 458 505.9 458c89.8 0 162.9-73.1 162.9-162.9s-73.1-162.8-162.9-162.8z" p-id="3768"></path><path d="M227 932c-8.6 0-16.2-5.5-19-13.6-11.7-34.2-17.7-70.1-17.7-106.7 0-177.8 141.6-322.5 315.6-322.5 77.1 0 151.4 28.7 209.1 80.9 8.2 7.5 8.9 20.2 1.4 28.4-7.4 8.2-20.2 8.9-28.4 1.4-50.3-45.5-115-70.5-182.1-70.5-151.9 0-275.4 126.6-275.4 282.3 0 27.3 3.8 54.2 11.2 80.1 59.1 0 141.3-0.3 228.4-0.5l19.6-0.1h0.1c11.1 0 20.1 9 20.1 20.1 0 11.1-9 20.2-20.1 20.2l-19.6 0.1c-94.6 0.1-183.5 0.4-243.2 0.4z" p-id="3769"></path><path d="M625.5 771.8l39.2 75.9s63.7-154.3 164.1-205.8c-2.4 36.7-12.2 68.6 4.9 107.8-44.1 9.8-134.7 120-164.1 173.9-41.7-51.4-90.7-90.7-125-102.9l80.9-48.9m0 0z" p-id="3770"></path></svg>